<svg xmlns="http://www.w3.org/2000/svg" width="800" height="600" viewBox="0 0 800 600">
  <defs>
    <linearGradient id="grad1" x1="0%" y1="0%" x2="100%" y2="100%">
      <stop offset="0%" style="stop-color:#770e58;stop-opacity:1" />
      <stop offset="100%" style="stop-color:#8A2BE2;stop-opacity:1" />
    </linearGradient>
  </defs>
  <rect width="800" height="600" fill="#f8f9fa"/>
  <g transform="translate(400, 300)">
    <path d="M-150,-100 C-150,-150 150,-150 150,-100 L150,100 C150,150 -150,150 -150,100 Z" fill="white" stroke="#8A2BE2" stroke-width="2"/>
    <path d="M-120,-70 L-120,70 L-80,70 L-80,-20 L-40,-20 L-40,70 L0,70 L0,-20 L40,-20 L40,70 L80,70 L80,-70 Z" fill="#8A2BE2" opacity="0.2"/>
    <path d="M-100,-50 Q-50,-100 0,-50 T100,-50" stroke="#770e58" stroke-width="4" fill="none"/>
    <path d="M-100,0 Q-50,-50 0,0 T100,0" stroke="#8A2BE2" stroke-width="4" fill="none"/>
    <path d="M-100,50 Q-50,0 0,50 T100,50" stroke="#ea268d" stroke-width="4" fill="none"/>
    <circle cx="-80" cy="-30" r="10" fill="#770e58"/>
    <circle cx="0" cy="-30" r="10" fill="#8A2BE2"/>
    <circle cx="80" cy="-30" r="10" fill="#ea268d"/>
  </g>
</svg>
