<svg xmlns="http://www.w3.org/2000/svg" width="800" height="600" viewBox="0 0 800 600">
  <defs>
    <linearGradient id="grad1" x1="0%" y1="0%" x2="100%" y2="100%">
      <stop offset="0%" style="stop-color:#770e58;stop-opacity:1" />
      <stop offset="100%" style="stop-color:#8A2BE2;stop-opacity:1" />
    </linearGradient>
  </defs>
  <rect width="800" height="600" fill="#f8f9fa"/>
  <path d="M0,150 Q400,50 800,150 L800,600 L0,600 Z" fill="url(#grad1)" opacity="0.1"/>
  <g transform="translate(400, 300)">
    <path d="M-150,-100 L150,-100 L150,100 L-150,100 Z" fill="none" stroke="#8A2BE2" stroke-width="2"/>
    <path d="M-120,-70 L-120,70 L-80,70 L-80,-20 L-40,-20 L-40,70 L0,70 L0,-20 L40,-20 L40,70 L80,70 L80,-70 Z" fill="#8A2BE2"/>
    <path d="M120,-70 L120,70 L80,70 L80,-70 Z" fill="#8A2BE2"/>
    <circle cx="-100" cy="-50" r="15" fill="#770e58"/>
    <circle cx="0" cy="-50" r="15" fill="#770e58"/>
    <circle cx="100" cy="-50" r="15" fill="#770e58"/>
  </g>
</svg>
